<svg xmlns="http://www.w3.org/2000/svg" xmlns:xlink="http://www.w3.org/1999/xlink" width="400" zoomAndPan="magnify" viewBox="0 0 300 67.499998" height="90" preserveAspectRatio="xMidYMid meet" version="1.0"><defs><g/><clipPath id="bb027106d7"><rect x="0" width="175" y="0" height="53"/></clipPath><clipPath id="08840d5649"><path d="M 41 10.574219 L 81 10.574219 L 81 25 L 41 25 Z M 41 10.574219 " clip-rule="nonzero"/></clipPath><clipPath id="7a7df65775"><path d="M 79 11 L 90.429688 11 L 90.429688 58 L 79 58 Z M 79 11 " clip-rule="nonzero"/></clipPath><clipPath id="92d8bd2026"><path d="M 28.636719 13 L 41 13 L 41 58.222656 L 28.636719 58.222656 Z M 28.636719 13 " clip-rule="nonzero"/></clipPath></defs><g transform="matrix(1, 0, 0, 1, 106, 12)"><g clip-path="url(#bb027106d7)"><g fill="#ffffff" fill-opacity="1"><g transform="translate(1.763208, 41.208544)"><g><path d="M 24.390625 -37.28125 L 33.390625 -37.28125 L 20.984375 0 L 11.9375 0 L -0.484375 -37.28125 L 5.0625 -37.28125 C 6.125 -37.28125 7.070312 -36.976562 7.90625 -36.375 C 8.738281 -35.769531 9.316406 -34.972656 9.640625 -33.984375 L 16.453125 -13.578125 Z M 24.390625 -37.28125 "/></g></g></g><g fill="#ffffff" fill-opacity="1"><g transform="translate(34.730946, 41.208544)"><g><path d="M 0.90625 -23.328125 L 21.515625 -23.28125 L 21.515625 -14.21875 L 0.90625 -14.28125 Z M 0.90625 -23.328125 "/></g></g></g><g fill="#ffffff" fill-opacity="1"><g transform="translate(57.153272, 41.208544)"><g><path d="M 1.859375 -37.28125 L 27.859375 -37.28125 L 27.859375 -33.71875 C 27.859375 -32.226562 27.320312 -30.941406 26.25 -29.859375 C 25.1875 -28.773438 23.894531 -28.234375 22.375 -28.234375 L 10.921875 -28.234375 L 10.921875 -22.578125 L 19.921875 -22.578125 L 19.921875 -13.578125 L 10.921875 -13.578125 L 10.921875 0 L 1.859375 0 Z M 1.859375 -37.28125 "/></g></g></g><g fill="#ffffff" fill-opacity="1"><g transform="translate(84.63526, 41.208544)"><g><path d="M 18.796875 -37.28125 C 20.472656 -37.28125 21.992188 -36.867188 23.359375 -36.046875 C 24.722656 -35.234375 25.8125 -34.144531 26.625 -32.78125 C 27.445312 -31.414062 27.859375 -29.898438 27.859375 -28.234375 L 27.859375 0 L 18.796875 0 L 18.796875 -13.578125 L 10.921875 -13.578125 L 10.921875 0 L 1.859375 0 L 1.859375 -37.28125 Z M 10.921875 -22.578125 L 18.796875 -22.578125 L 18.796875 -28.234375 L 10.921875 -28.234375 Z M 10.921875 -22.578125 "/></g></g></g><g fill="#ffffff" fill-opacity="1"><g transform="translate(114.141114, 41.208544)"><g><path d="M 10.4375 -37.28125 L 27.375 -37.28125 L 27.375 -25.40625 L 18.328125 -25.40625 L 18.328125 -28.234375 L 10.4375 -28.234375 L 10.4375 -22.578125 L 27.375 -22.578125 L 27.375 -9.0625 C 27.375 -7.382812 26.960938 -5.863281 26.140625 -4.5 C 25.328125 -3.132812 24.238281 -2.039062 22.875 -1.21875 C 21.507812 -0.40625 19.992188 0 18.328125 0 L 1.390625 0 L 1.390625 -11.296875 L 10.4375 -11.296875 L 10.4375 -9.0625 L 18.328125 -9.0625 L 18.328125 -13.578125 L 10.4375 -13.578125 C 8.769531 -13.578125 7.25 -13.976562 5.875 -14.78125 C 4.507812 -15.582031 3.421875 -16.664062 2.609375 -18.03125 C 1.796875 -19.394531 1.390625 -20.910156 1.390625 -22.578125 L 1.390625 -28.234375 C 1.390625 -29.898438 1.796875 -31.414062 2.609375 -32.78125 C 3.421875 -34.144531 4.507812 -35.234375 5.875 -36.046875 C 7.25 -36.867188 8.769531 -37.28125 10.4375 -37.28125 Z M 10.4375 -37.28125 "/></g></g></g><g fill="#ffffff" fill-opacity="1"><g transform="translate(143.114375, 41.208544)"><g><path d="M 0.53125 -37.28125 L 29.1875 -37.28125 C 29.1875 -35.613281 28.773438 -34.097656 27.953125 -32.734375 C 27.140625 -31.367188 26.050781 -30.273438 24.6875 -29.453125 C 23.320312 -28.640625 21.804688 -28.234375 20.140625 -28.234375 L 18.796875 -28.234375 L 18.796875 0 L 9.796875 0 L 9.796875 -28.234375 L 0.53125 -28.234375 Z M 0.53125 -37.28125 "/></g></g></g></g></g><path fill="#ffffff" d="M 80.890625 42.289062 C 80.660156 42.210938 80.4375 42.230469 80.222656 42.335938 C 80.003906 42.445312 79.859375 42.617188 79.78125 42.847656 C 78.421875 46.976562 76.078125 50.21875 72.820312 52.484375 C 69.242188 54.972656 64.671875 56.191406 59.226562 56.101562 C 53.097656 56 47.433594 53.527344 43.277344 49.136719 C 43.109375 48.960938 42.90625 48.867188 42.664062 48.863281 C 42.421875 48.855469 42.210938 48.933594 42.035156 49.101562 C 41.859375 49.269531 41.769531 49.472656 41.761719 49.714844 C 41.753906 49.957031 41.835938 50.167969 42 50.34375 C 44.195312 52.664062 46.753906 54.472656 49.675781 55.765625 C 52.707031 57.113281 55.878906 57.8125 59.199219 57.859375 C 59.390625 57.859375 59.585938 57.863281 59.777344 57.863281 C 65.34375 57.863281 70.066406 56.539062 73.824219 53.929688 C 77.402344 51.4375 79.96875 47.898438 81.449219 43.398438 C 81.527344 43.167969 81.511719 42.945312 81.402344 42.726562 C 81.292969 42.511719 81.121094 42.363281 80.890625 42.289062 Z M 80.890625 42.289062 " fill-opacity="1" fill-rule="nonzero"/><g clip-path="url(#08840d5649)"><path fill="#ffffff" d="M 79.894531 22.824219 C 75.746094 15.347656 67.820312 10.667969 59.21875 10.605469 C 52.089844 10.558594 46.054688 12.945312 41.769531 17.507812 C 41.601562 17.6875 41.523438 17.894531 41.53125 18.136719 C 41.539062 18.378906 41.632812 18.582031 41.808594 18.75 C 41.984375 18.914062 42.195312 18.992188 42.4375 18.988281 C 42.679688 18.980469 42.882812 18.886719 43.050781 18.710938 C 46.992188 14.511719 52.578125 12.316406 59.207031 12.363281 C 67.175781 12.417969 74.515625 16.753906 78.359375 23.679688 C 78.476562 23.890625 78.652344 24.03125 78.886719 24.097656 C 79.117188 24.164062 79.339844 24.136719 79.554688 24.019531 C 79.765625 23.902344 79.90625 23.726562 79.972656 23.492188 C 80.039062 23.261719 80.011719 23.039062 79.894531 22.824219 Z M 79.894531 22.824219 " fill-opacity="1" fill-rule="nonzero"/></g><g clip-path="url(#7a7df65775)"><path fill="#ffffff" d="M 89.078125 13.191406 C 89.058594 12.902344 88.992188 12.628906 88.871094 12.363281 C 88.75 12.101562 88.585938 11.871094 88.378906 11.667969 C 88.167969 11.46875 87.929688 11.3125 87.664062 11.203125 C 87.394531 11.09375 87.117188 11.035156 86.828125 11.027344 C 85.59375 11 84.804688 11.164062 84.34375 11.550781 C 84.070312 11.777344 83.875 11.941406 83.089844 15.75 C 82.683594 17.71875 82.171875 20.460938 81.640625 23.464844 C 81.621094 23.574219 79.714844 34.457031 79.816406 35.589844 C 79.867188 36.140625 80.195312 36.945312 82.265625 38.738281 C 82.929688 39.3125 83.582031 39.824219 83.984375 40.128906 C 83.4375 45.933594 82.597656 55.175781 82.707031 55.832031 C 82.796875 56.367188 83.261719 56.78125 84.132812 57.09375 C 84.976562 57.382812 85.84375 57.53125 86.734375 57.53125 C 87.84375 57.53125 88.988281 57.28125 89.804688 56.574219 C 90.339844 56.109375 91.078125 55.472656 90.316406 36.691406 C 89.933594 27.1875 89.324219 17.089844 89.078125 13.191406 Z M 88.5625 55.320312 C 87.511719 56.089844 85.1875 55.710938 84.449219 55.335938 C 84.515625 53.605469 85.277344 45.125 85.78125 39.804688 C 85.8125 39.472656 85.691406 39.210938 85.421875 39.011719 C 83.523438 37.628906 81.738281 35.960938 81.566406 35.421875 C 81.570312 33.878906 84.742188 15.261719 85.566406 12.875 C 85.730469 12.832031 86.089844 12.769531 86.789062 12.785156 C 86.929688 12.789062 87.054688 12.839844 87.15625 12.9375 C 87.261719 13.039062 87.316406 13.160156 87.324219 13.304688 C 87.558594 17.050781 88.148438 26.773438 88.535156 36.078125 C 89.171875 51.4375 88.789062 54.664062 88.5625 55.320312 Z M 88.5625 55.320312 " fill-opacity="1" fill-rule="nonzero"/></g><g clip-path="url(#92d8bd2026)"><path fill="#ffffff" d="M 29.953125 26.84375 C 30.359375 27.074219 31.0625 27.257812 31.90625 27.386719 C 31.847656 29.496094 31.710938 35.179688 31.664062 40.945312 C 31.542969 55.832031 32.140625 56.730469 32.429688 57.164062 C 32.910156 57.882812 33.921875 58.53125 35.460938 58.53125 C 35.917969 58.527344 36.367188 58.476562 36.816406 58.378906 C 37.601562 58.207031 38.949219 57.78125 39.109375 56.820312 C 39.222656 56.136719 38.066406 38.601562 37.324219 27.53125 C 37.808594 27.492188 38.285156 27.414062 38.753906 27.296875 C 39.140625 27.1875 39.691406 26.988281 39.957031 26.507812 C 40.097656 26.253906 40.320312 25.855469 40.300781 22.09375 C 40.300781 22.085938 40.300781 22.074219 40.300781 22.066406 C 40.300781 22.054688 40.300781 22.042969 40.300781 22.03125 C 40.296875 21.375 40.285156 20.617188 40.265625 19.742188 C 40.199219 16.898438 40.066406 14.132812 40.066406 14.105469 C 40.054688 13.863281 39.960938 13.660156 39.78125 13.5 C 39.601562 13.335938 39.390625 13.261719 39.148438 13.269531 C 38.90625 13.28125 38.703125 13.378906 38.539062 13.558594 C 38.375 13.738281 38.300781 13.949219 38.3125 14.191406 C 38.425781 16.574219 38.507812 19.101562 38.535156 21.1875 L 35.339844 21.1875 L 35.339844 14.148438 C 35.339844 13.90625 35.253906 13.699219 35.082031 13.527344 C 34.910156 13.355469 34.703125 13.269531 34.460938 13.269531 C 34.21875 13.269531 34.011719 13.355469 33.839844 13.527344 C 33.667969 13.699219 33.582031 13.90625 33.582031 14.148438 L 33.582031 21.1875 L 30.402344 21.1875 C 30.394531 20.671875 30.390625 20.101562 30.398438 19.460938 C 30.425781 16.773438 30.605469 14.238281 30.605469 14.210938 C 30.625 13.96875 30.554688 13.757812 30.394531 13.574219 C 30.234375 13.386719 30.035156 13.289062 29.792969 13.269531 C 29.550781 13.253906 29.339844 13.324219 29.15625 13.484375 C 28.972656 13.644531 28.871094 13.84375 28.855469 14.085938 C 28.851562 14.113281 28.65625 16.925781 28.640625 19.800781 C 28.605469 25.585938 29.300781 26.46875 29.953125 26.84375 Z M 37.367188 56.347656 C 36.976562 56.5625 35.976562 56.855469 35.042969 56.746094 C 34.664062 56.703125 34.164062 56.574219 33.90625 56.210938 C 33.757812 55.847656 33.308594 53.664062 33.421875 40.671875 C 33.46875 35.136719 33.601562 29.730469 33.660156 27.566406 C 34.207031 27.601562 34.769531 27.621094 35.320312 27.621094 C 35.402344 27.621094 35.488281 27.621094 35.566406 27.617188 C 36.300781 38.523438 37.308594 54.042969 37.367188 56.347656 Z M 34.785156 25.859375 C 32.851562 25.820312 31.378906 25.574219 30.890625 25.351562 C 30.8125 25.210938 30.59375 24.675781 30.476562 22.941406 L 38.542969 22.945312 C 38.539062 24.195312 38.503906 25.136719 38.429688 25.558594 C 38.03125 25.703125 36.851562 25.90625 34.785156 25.859375 Z M 34.785156 25.859375 " fill-opacity="1" fill-rule="nonzero"/></g><path fill="#ffffff" d="M 49.226562 41.785156 C 49.40625 41.785156 49.566406 41.738281 49.714844 41.636719 L 59.699219 34.964844 C 59.960938 34.789062 60.089844 34.546875 60.089844 34.234375 L 60.089844 18.726562 C 60.089844 18.484375 60.003906 18.277344 59.832031 18.105469 C 59.660156 17.933594 59.453125 17.847656 59.210938 17.847656 C 58.96875 17.847656 58.761719 17.933594 58.589844 18.105469 C 58.417969 18.277344 58.332031 18.484375 58.332031 18.726562 L 58.332031 33.765625 L 48.738281 40.175781 C 48.578125 40.285156 48.464844 40.429688 48.398438 40.613281 C 48.335938 40.792969 48.328125 40.976562 48.386719 41.164062 C 48.441406 41.347656 48.546875 41.5 48.703125 41.613281 C 48.859375 41.730469 49.035156 41.785156 49.226562 41.785156 Z M 49.226562 41.785156 " fill-opacity="1" fill-rule="nonzero"/></svg>